<?xml version="1.0" encoding="utf-8"?>
<!-- Generator: Adobe Illustrator 25.0.0, SVG Export Plug-In . SVG Version: 6.00 Build 0)  -->
<svg version="1.1" id="Layer_1" xmlns="http://www.w3.org/2000/svg" xmlns:xlink="http://www.w3.org/1999/xlink" x="0px" y="0px"
	 viewBox="0 0 150 150" style="enable-background:new 0 0 150 150;" xml:space="preserve">
<path d="M139.56,13.37C122.5-7.96,87.73-3.48,76.7,24.8c-0.41,1.05-0.48,2.36-1.7,3.17c-1.22-0.81-1.29-2.12-1.7-3.17
	C62.27-3.48,27.5-7.96,10.44,13.37C1.57,24.46-1.71,38.23,0.92,52.16C3.78,67.25,12.8,78.41,22.66,89.74
	c8.64,9.91,17.28,19.83,25.91,29.74c8.14,9.34,16.34,19.1,24.82,29.11c0.77,0.91,1.12,1.42,1.58,1.41c0.01,0,0.02,0,0.03-0.01
	c0.01,0.01,0.02,0.01,0.03,0.01c0.46,0.01,0.82-0.49,1.58-1.41c7.38-8.91,16.68-19.77,24.82-29.11
	c8.63-9.91,17.27-19.83,25.91-29.74c9.86-11.33,18.88-22.49,21.74-37.58C151.71,38.23,148.43,24.46,139.56,13.37z"/>
</svg>
