<?xml version="1.0" encoding="utf-8"?>
<!-- Generator: Adobe Illustrator 25.0.0, SVG Export Plug-In . SVG Version: 6.00 Build 0)  -->
<svg version="1.1" id="Layer_1" xmlns="http://www.w3.org/2000/svg" xmlns:xlink="http://www.w3.org/1999/xlink" x="0px" y="0px"
	 viewBox="0 0 150 150" style="enable-background:new 0 0 150 150;" xml:space="preserve">
<path d="M148.79,86.91c-0.61-2.21-1.4-4.31-2.38-6.29c0.01-0.01,0-0.02-0.01-0.03c-4.14-9.66-11.33-17.63-19.04-25.69
	c-4.93-5.15-9.86-10.3-14.78-15.45c-3.72-3.88-7.43-7.76-11.14-11.64C93.3,19.3,85.09,10.41,76.61,1.29
	c-0.76-0.82-1.1-1.28-1.56-1.29h-0.03h-0.04h-0.05c-0.45,0.02-0.81,0.48-1.54,1.29C66,9.4,56.7,19.3,48.55,27.81
	c-3.7,3.87-7.41,7.74-11.12,11.62c-4.93,5.16-9.87,10.31-14.8,15.47c-7.69,8.04-14.86,15.99-19,25.61
	c-0.03,0.06-0.06,0.11-0.08,0.17c-0.74,1.53-1.39,3.14-1.93,4.83c-1.21,3.78-1.73,7.61-1.61,11.36v0.17
	c0.44,12.3,7.72,23.74,19.88,29.89c7.3,3.69,15.06,5.06,23.15,3.29c12.2-2.66,21.03-9.41,25.93-20.9c1.18,4.79,0.63,9.27-0.35,13.67
	c-1.73,7.75-5.34,14.5-11.26,19.99c-0.41,0.39-0.84,0.77-1.28,1.14c-1.48,1.26-4.27,2.44-3.41,4.64c0.27,0.69,0.95,1.06,1.8,1.24
	h2.07c3.69,0.03,7.35,0.05,11.01,0.05c5.66,0.03,10.97,0.02,16.63,0c0.62-0.01,1.24-0.01,1.86-0.01c2.03-0.01,4.06-0.01,6.1-0.03
	c0.01-0.01,0.03,0,0.04,0c0.9,0.03,2.1,0.17,3.13,0.04h0.03c0.91-0.12,1.69-0.45,2.02-1.24c0.81-1.98-1.54-3.1-2.87-4.2
	c-7.08-5.82-11.26-13.27-13.16-21.92c-0.95-4.33-1.73-8.77-0.22-13.49c3.89,9.68,10.98,16.04,20.71,19.6
	c10.04,3.68,19.81,2.59,29.16-2.29c11.66-6.09,18.72-17.67,19.01-29.94v-0.05C150.06,93.33,149.67,90.1,148.79,86.91z"/>
</svg>
